<svg width="80" height="80" viewBox="0 0 80 80" fill="none" xmlns="http://www.w3.org/2000/svg">
<path d="M72.3334 40C72.3334 57.8571 57.8571 72.3334 40.0001 72.3334C22.1429 72.3334 7.66675 57.8571 7.66675 40C7.66675 22.1428 22.1429 7.66669 40.0001 7.66669C57.8571 7.66669 72.3334 22.1428 72.3334 40ZM43.5001 30C43.5001 28.067 41.933 26.5 40.0001 26.5C38.0671 26.5 36.5001 28.067 36.5001 30V36.5H30.0001C28.0671 36.5 26.5001 38.0671 26.5001 40C26.5001 41.933 28.0671 43.5 30.0001 43.5H36.5001V50C36.5001 51.933 38.0671 53.5 40.0001 53.5C41.933 53.5 43.5001 51.933 43.5001 50V43.5H50.0001C51.933 43.5 53.5001 41.933 53.5001 40C53.5001 38.0671 51.933 36.5 50.0001 36.5H43.5001V30Z" fill="#A0D8B3" stroke="#4A4A4A" stroke-width="2"/>
</svg>
