<svg width="46" height="46" viewBox="0 0 46 46" fill="none" xmlns="http://www.w3.org/2000/svg">
<path d="M38.6513 7.34739L38.6513 7.34736C37.4647 6.1607 35.8798 5.51127 33.381 5.17532C30.8534 4.8355 27.5446 4.83337 22.9987 4.83337C18.4528 4.83337 15.144 4.8355 12.6164 5.17532C10.1176 5.51127 8.53272 6.1607 7.34605 7.34738L7.34604 7.34739C6.63356 8.05985 6.11467 8.91599 5.74104 10.0275C6.23866 9.6821 6.7611 9.36925 7.30541 9.09191C8.9676 8.24498 10.7176 7.91863 12.5555 7.76847L12.6369 8.76515L12.5555 7.76847C14.3121 7.62496 16.4569 7.625 19.0062 7.62504L19.0449 7.62504H19.0449H26.9524L26.9912 7.62504C29.5406 7.625 31.6853 7.62496 33.4418 7.76847C35.2798 7.91863 37.0299 8.24497 38.6919 9.09191L38.6513 7.34739ZM38.6513 7.34739C39.3638 8.05986 39.8827 8.916 40.2563 10.0275M38.6513 7.34739L40.2563 10.0275M40.2563 10.0275C39.7587 9.68211 39.2362 9.36927 38.692 9.09194L40.2563 10.0275Z" fill="#FDFDFD" />
<path d="M5.76891 17.1866L5.76891 17.1866C6.59181 15.5715 7.9049 14.2584 9.51996 13.4355L9.51996 13.4355C10.3805 12.9971 11.4176 12.7528 12.9538 12.6272C14.5017 12.5008 16.4666 12.5 19.1667 12.5H26.8334C29.5335 12.5 31.4984 12.5008 33.0463 12.6272C34.5825 12.7528 35.6197 12.9971 36.4802 13.4355C38.0953 14.2584 39.4083 15.5715 40.2311 17.1865L40.2311 17.1866C40.6696 18.0471 40.9139 19.0843 41.0395 20.6204C41.1659 22.1683 41.1667 24.1332 41.1667 26.8333C41.1667 29.5335 41.1659 31.4984 41.0395 33.0463C40.9139 34.5824 40.6696 35.6196 40.2311 36.4802L40.2311 36.4802C39.4083 38.0952 38.0953 39.4083 36.4803 40.2311L36.4802 40.2311C35.6196 40.6696 34.5825 40.9139 33.0463 41.0394C31.4984 41.1659 29.5335 41.1667 26.8334 41.1667H19.1667C16.4666 41.1667 14.5017 41.1659 12.9538 41.0394C11.4176 40.9139 10.3805 40.6696 9.51998 40.2311L9.51991 40.231C7.90489 39.4083 6.59181 38.0952 5.76891 36.4802C5.33044 35.6196 5.08613 34.5825 4.96062 33.0463C4.83415 31.4984 4.83337 29.5335 4.83337 26.8333C4.83337 24.1332 4.83415 22.1683 4.96062 20.6204C5.08613 19.0842 5.33044 18.0471 5.76891 17.1866ZM16.4848 29.5152L16.4848 29.5152L21.2763 34.3066C21.2764 34.3067 21.2764 34.3068 21.2765 34.3069C21.7337 34.7642 22.3538 35.0208 23 35.0208C23.6462 35.0208 24.2664 34.7642 24.7236 34.3068C24.7236 34.3068 24.7237 34.3067 24.7238 34.3066L29.5152 29.5152C30.4671 28.5633 30.4671 27.0201 29.5152 26.0681C28.5633 25.1162 27.0201 25.1162 26.0682 26.0681C26.0682 26.0681 26.0682 26.0681 26.0682 26.0681L25.4375 26.6987V21.0833C25.4375 19.7372 24.3462 18.6458 23 18.6458C21.6539 18.6458 20.5625 19.7372 20.5625 21.0833V26.6987L19.9319 26.0682C18.9801 25.1162 17.4367 25.1163 16.4848 26.0682C15.5329 27.0201 15.5329 28.5633 16.4848 29.5152Z" fill="#FDFDFD" />
</svg>
