<svg width="22" height="22" viewBox="0 0 22 22" fill="none" xmlns="http://www.w3.org/2000/svg">
<path d="M8.35278 1.9342C7.62791 1.9342 7.04028 2.52183 7.04028 3.2467V4.1217C7.04028 4.84658 7.62791 5.4342 8.35278 5.4342H12.7278C13.4526 5.4342 14.0403 4.84658 14.0403 4.1217V3.2467C14.0403 2.52183 13.4526 1.9342 12.7278 1.9342H8.35278Z" fill="#4A4A4A"/>
<path fill-rule="evenodd" clip-rule="evenodd" d="M3.43413 4.45153C3.93227 3.95339 4.62711 3.778 5.72778 3.71625V4.1217C5.72778 5.57145 6.90304 6.7467 8.35278 6.7467H12.7278C14.1776 6.7467 15.3528 5.57145 15.3528 4.1217V3.71625C16.4534 3.778 17.1483 3.95339 17.6464 4.45153C18.4153 5.22037 18.4153 6.45781 18.4153 8.93268V14.1827C18.4153 16.6576 18.4153 17.895 17.6464 18.6639C16.8776 19.4327 15.6401 19.4327 13.1653 19.4327H7.91528C5.44041 19.4327 4.20297 19.4327 3.43413 18.6639C2.66528 17.895 2.66528 16.6576 2.66528 14.1827V8.93268C2.66528 6.45781 2.66528 5.22037 3.43413 4.45153ZM11.1965 9.8092C11.1965 9.44678 10.9027 9.15295 10.5403 9.15295C10.1779 9.15295 9.88403 9.44678 9.88403 9.8092V11.778H7.91528C7.55285 11.778 7.25903 12.0718 7.25903 12.4342C7.25903 12.7966 7.55285 13.0905 7.91528 13.0905H9.88403V15.0592C9.88403 15.4216 10.1779 15.7155 10.5403 15.7155C10.9027 15.7155 11.1965 15.4216 11.1965 15.0592V13.0905H13.1653C13.5277 13.0905 13.8215 12.7966 13.8215 12.4342C13.8215 12.0718 13.5277 11.778 13.1653 11.778H11.1965V9.8092Z" fill="#4A4A4A"/>
</svg>
