<svg width="38" height="38" viewBox="0 0 38 38" fill="none" xmlns="http://www.w3.org/2000/svg">
<path d="M13.6667 5.54169C13.6667 4.78229 14.2824 4.16669 15.0417 4.16669H22.9584C23.7178 4.16669 24.3334 4.7823 24.3334 5.54169V7.12502C24.3334 7.8844 23.7178 8.50002 22.9584 8.50002H15.0417C14.2824 8.50002 13.6667 7.88442 13.6667 7.12502V5.54169Z" fill="white" stroke="#4A4A4A" stroke-width="2"/>
<path d="M6.84835 8.42891C7.34743 7.92983 8.04047 7.6334 9.30239 7.47904C9.48528 10.4898 11.9849 12.875 15.0417 12.875H22.9583C26.0152 12.875 28.5147 10.4898 28.6976 7.47904C29.9595 7.6334 30.6525 7.92983 31.1516 8.42891L31.8587 7.7218L31.1516 8.42892C31.6305 8.90777 31.926 9.56917 32.085 10.7518C32.2479 11.9631 32.25 13.5631 32.25 15.8306V25.3306C32.25 27.598 32.2479 29.198 32.085 30.4094C31.926 31.592 31.6305 32.2534 31.1516 32.7322C30.6727 33.2111 30.0113 33.5066 28.8287 33.6656C27.6174 33.8285 26.0174 33.8306 23.75 33.8306H14.25C11.9826 33.8306 10.3826 33.8285 9.17121 33.6656C7.98861 33.5066 7.32721 33.2111 6.84836 32.7323C6.3695 32.2534 6.07398 31.592 5.91499 30.4094C5.75212 29.198 5.75 27.598 5.75 25.3306V15.8306C5.75 13.5631 5.75212 11.9631 5.91499 10.7518C6.07398 9.56916 6.3695 8.90776 6.84835 8.42891ZM21.1875 17.4166C21.1875 16.2085 20.2081 15.2291 19 15.2291C17.7919 15.2291 16.8125 16.2085 16.8125 17.4166V19.9791H14.25C13.0419 19.9791 12.0625 20.9586 12.0625 22.1666C12.0625 23.3747 13.0419 24.3541 14.25 24.3541H16.8125V26.9166C16.8125 28.1248 17.7919 29.1041 19 29.1041C20.2081 29.1041 21.1875 28.1248 21.1875 26.9166V24.3541H23.75C24.9581 24.3541 25.9375 23.3747 25.9375 22.1666C25.9375 20.9585 24.9581 19.9791 23.75 19.9791H21.1875V17.4166Z" fill="white" stroke="#4A4A4A" stroke-width="2"/>
</svg>
