<svg width="800" height="800" viewBox="0 0 800 800" fill="none" xmlns="http://www.w3.org/2000/svg">
<g clip-path="url(#clip0_75_46)">
<path d="M399.143 365.206L399.85 365.914L400.558 365.206L508.003 257.711C508.004 257.71 508.005 257.709 508.006 257.708C517.465 248.349 532.756 248.348 542.216 257.706C551.653 267.317 551.652 282.437 542.213 292.047C542.212 292.047 542.212 292.048 542.211 292.048L434.792 399.543L434.085 400.251L434.793 400.958L540.718 506.707L540.718 506.708C550.102 516.067 550.102 531.434 540.718 540.793L540.717 540.794C531.358 550.153 516.141 550.154 506.756 540.793L400.857 434.794L400.15 434.086L399.442 434.794L292.796 541.538C292.795 541.539 292.794 541.54 292.793 541.541C283.335 550.9 268.02 550.901 258.56 541.544C249.116 531.928 249.13 516.563 258.555 507.21L258.558 507.207L365.208 400.457L365.915 399.749L365.207 399.042L259.306 293.293L259.306 293.292C249.923 283.933 249.923 268.566 259.306 259.207L259.308 259.205C268.641 249.848 283.858 249.845 293.244 259.207L399.143 365.206ZM49 400C49 593.802 206.148 751 400 751C593.852 751 751 593.802 751 400C751 206.198 593.852 49 400 49C206.148 49 49 206.198 49 400ZM1 400C1 179.552 179.627 1 400 1C620.373 1 799 179.552 799 400C799 620.448 620.373 799 400 799C179.627 799 1 620.448 1 400Z" fill="#F8F0E3" stroke="#4A4A4A" stroke-width="2"/>
</g>
<defs>
<clipPath id="clip0_75_46">
<rect width="800" height="800" fill="white"/>
</clipPath>
</defs>
</svg>
