<svg width="52" height="46" viewBox="0 0 52 46" fill="none" xmlns="http://www.w3.org/2000/svg">
<path d="M26.7263 6.79346C32.2842 0.925905 38.2907 0.277425 42.8542 2.39697C47.4854 4.54802 50.8337 9.63454 50.8337 15.6519C50.8337 21.7274 48.3735 26.3951 44.9382 30.3257C41.9026 33.799 38.1653 36.6374 34.6931 39.3638L33.2234 40.5269C31.873 41.6085 30.6106 42.6067 29.3767 43.3394C28.1422 44.0724 27.0335 44.479 25.9998 44.479C24.9661 44.4789 23.8573 44.0723 22.6228 43.3394C21.6974 42.7898 20.7558 42.0911 19.7732 41.3198L18.7761 40.5269C14.9168 37.4354 10.5306 34.2953 7.06128 30.3257C3.62601 26.3951 1.16683 21.7274 1.16675 15.6519C1.16675 9.63467 4.51429 4.54811 9.14526 2.39697C13.7088 0.277303 19.7161 0.925692 25.2742 6.79346L25.9998 7.56006L26.7263 6.79346Z" fill="white" stroke="#4A4A4A" stroke-width="2"/>
</svg>
