<svg width="46" height="46" viewBox="0 0 46 46" fill="none" xmlns="http://www.w3.org/2000/svg">
<path d="M22.2794 11.2363L22.9999 11.9848L23.7204 11.2363C27.7768 7.02182 32.1226 6.58282 35.4018 8.08174C38.744 9.60947 41.1666 13.2265 41.1666 17.5127C41.1666 21.8609 39.3815 25.2063 36.862 28.0433C34.7956 30.3702 32.2896 32.3019 29.883 34.1569C29.3155 34.5943 28.7536 35.0274 28.2042 35.4605C27.2 36.2521 26.2771 36.9692 25.3796 37.4936C24.4817 38.0182 23.7044 38.2916 22.9999 38.2916C22.2954 38.2916 21.5181 38.0182 20.6203 37.4936C19.7228 36.9692 18.7999 36.2521 17.7957 35.4605C17.2463 35.0274 16.6843 34.5942 16.1168 34.1568C13.7103 32.3018 11.2043 30.3702 9.13785 28.0433C6.61837 25.2063 4.83325 21.8609 4.83325 17.5127C4.83325 13.2265 7.25585 9.60947 10.5981 8.08174C13.8772 6.58282 18.223 7.02182 22.2794 11.2363Z" fill="#EA4335" stroke="#4A4A4A" stroke-width="2"/>
</svg>
