<svg width="20" height="20" viewBox="0 0 20 20" fill="none" xmlns="http://www.w3.org/2000/svg">
<path fill-rule="evenodd" clip-rule="evenodd" d="M13.2658 10C13.2658 9.6721 12.9999 9.40626 12.672 9.40626H3.98543L5.53761 8.07582C5.78659 7.86242 5.81542 7.48758 5.60201 7.23861C5.38861 6.98963 5.01377 6.96079 4.7648 7.1742L1.99397 9.54924C1.86236 9.66197 1.78662 9.82671 1.78662 10C1.78662 10.1733 1.86236 10.3381 1.99397 10.4508L4.7648 12.8258C5.01377 13.0392 5.38861 13.0104 5.60201 12.7614C5.81542 12.5124 5.78659 12.1376 5.53761 11.9242L3.98543 10.5938H12.672C12.9999 10.5938 13.2658 10.3279 13.2658 10Z" fill="#FDFDFD"/>
<path d="M7.90674 6.83337C7.90674 7.38927 7.90674 7.66723 8.04014 7.86689C8.09791 7.95335 8.17214 8.02759 8.2586 8.08536C8.45829 8.21876 8.73625 8.21876 9.29215 8.21876H12.6567C13.6405 8.21876 14.438 9.01624 14.438 10C14.438 10.9838 13.6405 11.7813 12.6567 11.7813H9.29215C8.73625 11.7813 8.45821 11.7813 8.25855 11.9147C8.17213 11.9725 8.09793 12.0467 8.04017 12.1331C7.90674 12.3328 7.90674 12.6107 7.90674 13.1667C7.90674 15.4059 7.90674 16.5254 8.60238 17.2211C9.29801 17.9167 10.4174 17.9167 12.6566 17.9167H13.4482C15.6874 17.9167 16.807 17.9167 17.5026 17.2211C18.1982 16.5254 18.1982 15.4059 18.1982 13.1667V6.83337C18.1982 4.59421 18.1982 3.47462 17.5026 2.779C16.807 2.08337 15.6874 2.08337 13.4482 2.08337H12.6566C10.4174 2.08337 9.29801 2.08337 8.60238 2.779C7.90674 3.47462 7.90674 4.5942 7.90674 6.83337Z" fill="#FDFDFD"/>
</svg>
