<svg width="51" height="51" viewBox="0 0 51 51" fill="none" xmlns="http://www.w3.org/2000/svg">
<path d="M45.75 25.5C45.75 36.6837 36.6837 45.75 25.5 45.75C14.3162 45.75 5.25 36.6837 5.25 25.5C5.25 14.3162 14.3162 5.25 25.5 5.25C36.6837 5.25 45.75 14.3162 45.75 25.5ZM17 28.625C18.7259 28.625 20.125 27.2259 20.125 25.5C20.125 23.7741 18.7259 22.375 17 22.375C15.2741 22.375 13.875 23.7741 13.875 25.5C13.875 27.2259 15.2741 28.625 17 28.625ZM25.5 28.625C27.2259 28.625 28.625 27.2259 28.625 25.5C28.625 23.7741 27.2259 22.375 25.5 22.375C23.7741 22.375 22.375 23.7741 22.375 25.5C22.375 27.2259 23.7741 28.625 25.5 28.625ZM34 28.625C35.7259 28.625 37.125 27.2259 37.125 25.5C37.125 23.7741 35.7259 22.375 34 22.375C32.2741 22.375 30.875 23.7741 30.875 25.5C30.875 27.2259 32.2741 28.625 34 28.625Z" fill="#A0D8B3" stroke="#4A4A4A" stroke-width="2"/>
</svg>
