<svg width="48" height="49" viewBox="0 0 48 49" fill="none" xmlns="http://www.w3.org/2000/svg">
<path d="M39.3584 37.0626L39.3583 37.0626C37.8147 36.9344 36.5066 38.2364 36.6355 39.8198L39.3584 37.0626ZM39.3584 37.0626C39.6053 37.0831 39.942 37.1804 40.4352 37.3304L40.4359 37.3306M39.3584 37.0626L40.4359 37.3306M40.4359 37.3306L40.5029 37.3509L40.5687 37.3708L40.5687 37.3708M40.4359 37.3306L40.5687 37.3708M40.5687 37.3708L40.5715 37.3716M40.5687 37.3708L40.5715 37.3716M40.5715 37.3716C40.6119 37.3837 40.6497 37.3951 40.6871 37.4065L40.6871 37.4065M40.5715 37.3716L40.6871 37.4065M40.6871 37.4065L40.6911 37.4077M40.6871 37.4065L40.6911 37.4077M40.6911 37.4077C41.1425 37.5433 41.4526 37.641 41.6632 37.7546L40.6911 37.4077ZM36.9423 41.0467L36.9425 41.0476L36.9785 41.1691C37.1129 41.6241 37.2104 41.939 37.3241 42.1533L36.9423 41.0467ZM36.9423 41.0467L36.9221 40.9787L36.9027 40.9138L36.902 40.9114C36.7537 40.4151 36.6562 40.0723 36.6356 39.8199L36.9423 41.0467ZM41.883 42.1967L41.8833 42.1963C42.2169 41.8608 42.4448 41.6258 42.5775 41.4238L41.883 42.1967ZM41.883 42.1967L41.7954 42.285C41.7768 42.3036 41.7541 42.3266 41.7346 42.3463C41.7235 42.3576 41.7134 42.3678 41.7058 42.3755L41.7041 42.3772M41.883 42.1967L41.7041 42.3772M41.7041 42.3772C41.3711 42.714 41.1385 42.9435 40.9391 43.0766L40.939 43.0766M41.7041 42.3772L40.939 43.0766M40.939 43.0766C39.7039 43.9017 38.0288 43.4807 37.3241 42.1534L40.939 43.0766ZM41.6634 37.7548C42.9741 38.463 43.4046 40.1636 42.5776 41.4236L41.6634 37.7548Z" fill="#A0D8B3" stroke="#4A4A4A" stroke-width="2"/>
<path d="M39.2556 22.7858C39.2556 32.3407 31.579 40.0716 22.1278 40.0716C12.6765 40.0716 5 32.3407 5 22.7858C5 13.2309 12.6765 5.5 22.1278 5.5C31.579 5.5 39.2556 13.2309 39.2556 22.7858Z" fill="#A0D8B3" stroke="#4A4A4A" stroke-width="2"/>
</svg>
