<svg width="38" height="38" viewBox="0 0 38 38" fill="none" xmlns="http://www.w3.org/2000/svg">
<path d="M29.1838 13.8541L34.2589 8.77907C34.8332 11.0971 34.8332 14.3126 34.8332 19C34.8332 26.4638 34.8332 30.1959 32.5144 32.5145C30.1957 34.8333 26.4637 34.8333 18.9998 34.8333C11.5359 34.8333 7.80398 34.8333 5.48525 32.5145C3.1665 30.1959 3.1665 26.4638 3.1665 19C3.1665 11.5361 3.1665 7.8041 5.48525 5.48537C7.80398 3.16663 11.5359 3.16663 18.9998 3.16663C23.6873 3.16663 26.9027 3.16663 29.2207 3.74093L24.1457 8.81599V7.91663C24.1457 5.94911 22.5506 4.35413 20.5832 4.35413C18.6157 4.35413 17.0207 5.94911 17.0207 7.91663V17.4166C17.0207 19.3841 18.6157 20.9791 20.5832 20.9791H30.0832C32.0506 20.9791 33.6457 19.3841 33.6457 17.4166C33.6457 15.4491 32.0506 13.8541 30.0832 13.8541H29.1838Z" fill="#A0D8B3"/>
<path d="M30.0835 18.6042C30.7393 18.6042 31.271 18.0725 31.271 17.4167C31.271 16.7608 30.7393 16.2292 30.0835 16.2292H23.4504L34.0898 5.58968C34.5536 5.12594 34.5536 4.37405 34.0898 3.91031C33.626 3.44656 32.8743 3.44656 32.4105 3.91031L21.771 14.5498V7.91666C21.771 7.26083 21.2393 6.72916 20.5835 6.72916C19.9277 6.72916 19.396 7.26083 19.396 7.91666V17.4167C19.396 18.0725 19.9277 18.6042 20.5835 18.6042H30.0835Z" fill="#A0D8B3"/>
</svg>
