<svg width="41" height="41" viewBox="0 0 41 41" fill="none" xmlns="http://www.w3.org/2000/svg">
<path fill-rule="evenodd" clip-rule="evenodd" d="M20.316 2.90897C15.9783 2.90897 12.4619 6.4254 12.4619 10.7631C12.4619 15.1009 15.9783 18.6173 20.316 18.6173C24.6538 18.6173 28.1702 15.1009 28.1702 10.7631C28.1702 6.4254 24.6538 2.90897 20.316 2.90897ZM14.9422 10.7631C14.9422 7.7952 17.3481 5.38923 20.316 5.38923C23.2841 5.38923 25.6899 7.7952 25.6899 10.7631C25.6899 13.7311 23.2841 16.137 20.316 16.137C17.3481 16.137 14.9422 13.7311 14.9422 10.7631Z" fill="#4A4A4A"/>
<path fill-rule="evenodd" clip-rule="evenodd" d="M20.316 21.0976C16.4906 21.0976 12.9661 21.9671 10.3544 23.4361C7.78163 24.8834 5.84787 27.0768 5.84787 29.7785L5.84777 29.9471C5.8459 31.8682 5.84355 34.2793 7.95844 36.0015C8.99927 36.8491 10.4553 37.4518 12.4226 37.8501C14.3953 38.2492 16.9664 38.4594 20.316 38.4594C23.6657 38.4594 26.2369 38.2492 28.2095 37.8501C30.1769 37.4518 31.633 36.8491 32.6737 36.0015C34.7885 34.2793 34.7862 31.8682 34.7844 29.9471L34.7842 29.7785C34.7842 27.0768 32.8506 24.8834 30.2778 23.4361C27.666 21.9671 24.1416 21.0976 20.316 21.0976ZM8.32813 29.7785C8.32813 28.3709 9.35559 26.8437 11.5704 25.5979C13.7463 24.374 16.8359 23.5778 20.316 23.5778C23.7963 23.5778 26.8857 24.374 29.0618 25.5979C31.2766 26.8437 32.304 28.3709 32.304 29.7785C32.304 31.9409 32.2373 33.1583 31.1075 34.0783C30.4949 34.5773 29.4707 35.0643 27.7175 35.4191C25.9699 35.7728 23.5805 35.9791 20.316 35.9791C17.0517 35.9791 14.6623 35.7728 12.9146 35.4191C11.1615 35.0643 10.1373 34.5773 9.52459 34.0783C8.3948 33.1583 8.32813 31.9409 8.32813 29.7785Z" fill="#4A4A4A"/>
</svg>
