<svg width="50" height="49" viewBox="0 0 50 49" fill="none" xmlns="http://www.w3.org/2000/svg">
<path fill-rule="evenodd" clip-rule="evenodd" d="M15.3101 12.5363C15.3101 7.22489 19.6158 2.91916 24.9272 2.91916C30.2387 2.91916 34.5443 7.22489 34.5443 12.5363C34.5443 17.8477 30.2387 22.1534 24.9272 22.1534C19.6158 22.1534 15.3101 17.8477 15.3101 12.5363ZM24.9272 5.95614C21.2931 5.95614 18.347 8.90216 18.347 12.5363C18.347 16.1704 21.2931 19.1164 24.9272 19.1164C28.5612 19.1164 31.5073 16.1704 31.5073 12.5363C31.5073 8.90216 28.5612 5.95614 24.9272 5.95614Z" fill="white"/>
<path d="M36.5689 34.1327C36.5689 33.2938 35.889 32.6142 35.0504 32.6142C34.2118 32.6142 33.5319 33.2938 33.5319 34.1327V35.3136H32.3505C31.5119 35.3136 30.832 35.9935 30.832 36.8321C30.832 37.6707 31.5119 38.3506 32.3505 38.3506H33.5319V39.5316C33.5319 40.3702 34.2118 41.0501 35.0504 41.0501C35.889 41.0501 36.5689 40.3702 36.5689 39.5316V38.3506H37.7497C38.5883 38.3506 39.2682 37.6707 39.2682 36.8321C39.2682 35.9935 38.5883 35.3136 37.7497 35.3136H36.5689V34.1327Z" fill="white"/>
<path fill-rule="evenodd" clip-rule="evenodd" d="M34.6694 27.2225C34.796 27.2175 34.9231 27.215 35.0507 27.215C40.3622 27.215 44.6678 31.5207 44.6678 36.8321C44.6678 42.1436 40.3622 46.4493 35.0507 46.4493C32.6624 46.4493 30.4776 45.5786 28.7959 44.1377C27.5576 44.3252 26.261 44.4246 24.9274 44.4246C20.7985 44.4246 16.9857 43.4714 14.1525 41.8525C11.3622 40.2581 9.23633 37.824 9.23633 34.8075C9.23633 31.7909 11.3622 29.3569 14.1525 27.7625C16.9857 26.1436 20.7985 25.1904 24.9274 25.1904C28.5809 25.1904 31.9783 25.9363 34.6694 27.2225ZM35.0507 30.252C31.4166 30.252 28.4706 33.1981 28.4706 36.8321C28.4706 40.4662 31.4166 43.4123 35.0507 43.4123C38.6847 43.4123 41.6308 40.4662 41.6308 36.8321C41.6308 33.1981 38.6847 30.252 35.0507 30.252ZM26.549 41.3317C25.8369 39.9892 25.4336 38.4577 25.4336 36.8321C25.4336 33.4487 27.1808 30.4733 29.8222 28.7592C28.3221 28.4185 26.6708 28.2274 24.9274 28.2274C21.229 28.2274 17.9555 29.0872 15.6593 30.3994C13.3201 31.7361 12.2733 33.3511 12.2733 34.8075C12.2733 36.2638 13.3201 37.8789 15.6593 39.2156C17.9555 40.5277 21.229 41.3876 24.9274 41.3876C25.4771 41.3876 26.0183 41.3686 26.549 41.3317Z" fill="white"/>
</svg>
