<svg width="43" height="43" viewBox="0 0 43 43" fill="none" xmlns="http://www.w3.org/2000/svg">
<path d="M41.75 21.5C41.75 32.6837 32.6837 41.75 21.5 41.75C10.3162 41.75 1.25 32.6837 1.25 21.5C1.25 10.3162 10.3162 1.25 21.5 1.25C32.6837 1.25 41.75 10.3162 41.75 21.5ZM13 24.625C14.7259 24.625 16.125 23.2259 16.125 21.5C16.125 19.7741 14.7259 18.375 13 18.375C11.2741 18.375 9.875 19.7741 9.875 21.5C9.875 23.2259 11.2741 24.625 13 24.625ZM21.5 24.625C23.2259 24.625 24.625 23.2259 24.625 21.5C24.625 19.7741 23.2259 18.375 21.5 18.375C19.7741 18.375 18.375 19.7741 18.375 21.5C18.375 23.2259 19.7741 24.625 21.5 24.625ZM30 24.625C31.7259 24.625 33.125 23.2259 33.125 21.5C33.125 19.7741 31.7259 18.375 30 18.375C28.2741 18.375 26.875 19.7741 26.875 21.5C26.875 23.2259 28.2741 24.625 30 24.625Z" fill="#A0D8B3" stroke="#4A4A4A" stroke-width="2"/>
</svg>
