<svg width="37" height="37" viewBox="0 0 37 37" fill="none" xmlns="http://www.w3.org/2000/svg">
<path d="M3.41637 3.41638L3.41638 3.41637C4.55423 2.27851 6.07547 1.65349 8.48348 1.32974C10.9203 1.00212 14.1112 1 18.5 1C22.8887 1 26.0797 1.00212 28.5165 1.32974C30.9245 1.65349 32.4458 2.27851 33.5836 3.41636L33.5836 3.41639C34.7215 4.55424 35.3465 6.07547 35.6703 8.48348C35.9979 10.9203 36 14.1112 36 18.5C36 22.8887 35.9979 26.0797 35.6703 28.5165C35.3465 30.9245 34.7215 32.4458 33.5836 33.5835L33.5835 33.5836C32.4458 34.7215 30.9245 35.3465 28.5165 35.6703C26.0797 35.9979 22.8887 36 18.5 36C14.1112 36 10.9203 35.9979 8.48348 35.6703C6.07547 35.3465 4.55424 34.7215 3.41639 33.5836L3.41636 33.5836C2.27851 32.4458 1.65349 30.9245 1.32974 28.5165C1.00212 26.0797 1 22.8887 1 18.5C1 14.1112 1.00212 10.9203 1.32974 8.48348C1.65349 6.07547 2.27851 4.55423 3.41637 3.41638ZM11.2618 18.6618L11.2618 18.6618C10.3294 19.5942 10.3294 21.1058 11.2618 22.0381C12.1941 22.9705 13.7058 22.9706 14.6382 22.0382C14.6382 22.0382 14.6382 22.0382 14.6382 22.0381L16.1125 20.5639V27.75C16.1125 29.0686 17.1814 30.1375 18.5 30.1375C19.8186 30.1375 20.8875 29.0686 20.8875 27.75V20.5639L22.3618 22.0382C22.3618 22.0382 22.3619 22.0382 22.3619 22.0382C23.2942 22.9706 24.8058 22.9705 25.7382 22.0382C26.6706 21.1058 26.6705 19.5942 25.7382 18.6618L20.1883 13.1119C19.7405 12.664 19.1331 12.4125 18.5 12.4125C17.8669 12.4125 17.2596 12.664 16.8118 13.1118C16.8118 13.1118 16.8118 13.1119 16.8117 13.1119L11.2618 18.6618ZM8.7125 9.25C8.7125 10.5686 9.78143 11.6375 11.1 11.6375H25.9C27.2185 11.6375 28.2875 10.5686 28.2875 9.25C28.2875 7.93142 27.2185 6.8625 25.9 6.8625H11.1C9.78143 6.8625 8.7125 7.93143 8.7125 9.25Z" fill="white" stroke="#4A4A4A" stroke-width="2"/>
</svg>
